# Blender v2.90.0 OBJ File: 'cuboid.blend'
# www.blender.org
mtllib cuboid.mtl
o Cube
v 15.000000 0.454999 -1.375000
v -15.000000 0.455001 -1.375000
v 15.000000 0.454999 1.375000
v -15.000000 0.455001 1.375000
v 15.000000 3.204999 -1.375000
v -15.000000 3.205001 -1.375000
v 15.000000 3.204999 1.375000
v -15.000000 3.205001 1.375000
v -15.000000 3.205001 -1.375000
v -15.000000 3.205001 1.375000
v -15.000000 0.455001 -1.375000
v 15.000000 0.454999 -1.375000
v 15.000000 3.204999 1.375000
v 15.000000 0.454999 1.375000
v -15.000000 0.455001 1.375000
v 15.000000 3.204999 -1.375000
v -15.000000 3.205001 1.924791
v 15.000000 3.204999 1.924791
v 15.000000 0.454999 1.924791
v -15.000000 0.455001 1.924791
v 15.000000 -0.000179 -1.375000
v -15.000000 -0.000177 -1.375000
v 15.000000 -0.000179 1.375000
v -15.000000 -0.000177 1.375000
v -15.000000 0.455001 -1.858055
v -15.000000 3.205001 -1.858055
v 15.000000 0.454999 -1.858055
v 15.000000 3.204999 -1.858055
v -15.000000 3.764337 -1.375000
v -15.000000 3.764337 1.375000
v 15.000000 3.764335 1.375000
v 15.000000 3.764335 -1.375000
v 15.000000 3.204999 -1.829221
v -15.000000 3.205001 -1.829221
v 15.000000 3.764335 -1.829221
v -15.000000 3.764337 -1.829221
v 15.000000 0.454999 -1.858368
v -15.000000 0.455001 -1.858368
v 15.000000 -0.000179 -1.858368
v -15.000000 -0.000177 -1.858368
v 15.000000 0.454999 1.896727
v -15.000000 0.455001 1.896727
v 15.000000 -0.000179 1.896727
v -15.000000 -0.000177 1.896727
v -15.000000 3.205001 1.907862
v 15.000000 3.204999 1.907862
v -15.000000 3.764337 1.907862
v 15.000000 3.764335 1.907862
vt 0.375000 0.750000
vt 0.375000 1.000000
vt 0.625000 1.000000
vt 0.625000 0.750000
vt 0.375000 0.000000
vt 0.375000 0.250000
vt 0.625000 0.250000
vt 0.625000 0.000000
vt 0.375000 0.500000
vt 0.625000 0.500000
vt 0.625000 0.000000
vt 0.375000 0.000000
vt 0.375000 0.000000
vt 0.625000 0.000000
vt 0.625000 0.250000
vt 0.375000 0.250000
vt 0.375000 0.250000
vt 0.625000 0.250000
vt 0.625000 0.500000
vt 0.625000 0.750000
vt 0.625000 0.750000
vt 0.625000 0.500000
vt 0.625000 0.250000
vt 0.375000 0.250000
vt 0.375000 0.750000
vt 0.375000 1.000000
vt 0.625000 1.000000
vt 0.375000 0.500000
vt 0.375000 0.750000
vt 0.625000 0.750000
vt 0.625000 1.000000
vt 0.375000 1.000000
vt 0.375000 0.500000
vt 0.375000 0.750000
vt 0.625000 0.750000
vt 0.375000 0.750000
vt 0.375000 0.500000
vt 0.625000 0.500000
vt 0.625000 0.500000
vt 0.375000 0.500000
vt 0.375000 0.000000
vt 0.625000 0.000000
vt 0.625000 0.250000
vt 0.375000 0.250000
vt 0.375000 0.000000
vt 0.375000 0.000000
vt 0.375000 0.250000
vt 0.625000 0.250000
vt 0.375000 0.500000
vt 0.625000 0.500000
vt 0.625000 0.750000
vt 0.375000 0.750000
vt 0.625000 0.000000
vt 0.625000 0.000000
vn 0.0000 0.0000 -1.0000
vn -0.0000 -1.0000 0.0000
vn 0.0000 1.0000 0.0000
vn 0.0000 0.0000 1.0000
vn 1.0000 0.0000 0.0000
vn -1.0000 0.0000 0.0000
usemtl Material
s off
f 4/1/1 8/2/1 7/3/1 3/4/1
f 8/5/2 6/6/2 5/7/2 7/8/2
f 2/9/3 4/1/3 3/4/3 1/10/3
f 6/6/4 2/9/4 1/10/4 5/7/4
f 13/11/3 10/12/3 17/13/3 18/14/3
f 16/15/2 9/16/2 34/17/2 33/18/2
f 12/19/5 14/20/5 23/21/5 21/22/5
f 9/16/3 16/15/3 28/23/3 26/24/3
f 8/2/4 4/1/4 15/25/4 10/26/4
f 3/4/4 7/3/4 13/27/4 14/20/4
f 4/1/4 2/9/4 11/28/4 15/25/4
f 6/6/4 8/5/4 10/12/4 9/16/4
f 7/8/4 5/7/4 16/15/4 13/11/4
f 1/10/4 3/4/4 14/20/4 12/19/4
f 2/9/4 6/6/4 9/16/4 11/28/4
f 5/7/4 1/10/4 12/19/4 16/15/4
f 20/29/4 19/30/4 18/31/4 17/32/4
f 10/26/6 15/25/6 20/29/6 17/32/6
f 14/20/5 13/27/5 18/31/5 19/30/5
f 15/25/2 14/20/2 19/30/2 20/29/2
f 22/33/2 21/22/2 23/21/2 24/34/2
f 24/34/2 23/21/2 43/35/2 44/36/2
f 21/22/2 22/33/2 40/37/2 39/38/2
f 15/25/6 11/28/6 22/33/6 24/34/6
f 26/24/1 28/23/1 27/39/1 25/40/1
f 11/28/6 9/16/6 26/24/6 25/40/6
f 16/15/5 12/19/5 27/39/5 28/23/5
f 12/19/2 11/28/2 25/40/2 27/39/2
f 30/41/3 31/42/3 32/43/3 29/44/3
f 30/41/6 10/12/6 45/45/6 47/46/6
f 9/16/6 10/12/6 30/41/6 29/44/6
f 13/11/5 16/15/5 32/43/5 31/42/5
f 33/18/1 34/17/1 36/47/1 35/48/1
f 32/43/5 16/15/5 33/18/5 35/48/5
f 9/16/6 29/44/6 36/47/6 34/17/6
f 29/44/3 32/43/3 35/48/3 36/47/3
f 38/49/1 37/50/1 39/38/1 40/37/1
f 11/28/3 12/19/3 37/50/3 38/49/3
f 22/33/6 11/28/6 38/49/6 40/37/6
f 12/19/5 21/22/5 39/38/5 37/50/5
f 41/51/4 42/52/4 44/36/4 43/35/4
f 15/25/6 24/34/6 44/36/6 42/52/6
f 23/21/5 14/20/5 41/51/5 43/35/5
f 14/20/3 15/25/3 42/52/3 41/51/3
f 45/45/4 46/53/4 48/54/4 47/46/4
f 10/12/2 13/11/2 46/53/2 45/45/2
f 31/42/3 30/41/3 47/46/3 48/54/3
f 13/11/5 31/42/5 48/54/5 46/53/5
