# Blender v2.90.0 OBJ File: 'clynder.blend'
# www.blender.org
mtllib cylinder.mtl
o Cylinder.001_Cylinder.002
v 0.000000 -27.250000 -2.000000
v 0.000000 27.250000 -2.000000
v 0.390181 -27.250000 -1.961571
v 0.390181 27.250000 -1.961571
v 0.765367 -27.250000 -1.847759
v 0.765367 27.250000 -1.847759
v 1.111140 -27.250000 -1.662939
v 1.111140 27.250000 -1.662939
v 1.414214 -27.250000 -1.414214
v 1.414214 27.250000 -1.414214
v 1.662939 -27.250000 -1.111140
v 1.662939 27.250000 -1.111140
v 1.847759 -27.250000 -0.765367
v 1.847759 27.250000 -0.765367
v 1.961571 -27.250000 -0.390181
v 1.961571 27.250000 -0.390181
v 2.000000 -27.250000 -0.000000
v 2.000000 27.250000 -0.000000
v 1.961571 -27.250000 0.390180
v 1.961571 27.250000 0.390180
v 1.847759 -27.250000 0.765367
v 1.847759 27.250000 0.765367
v 1.662939 -27.250000 1.111140
v 1.662939 27.250000 1.111140
v 1.414214 -27.250000 1.414214
v 1.414214 27.250000 1.414214
v 1.111140 -27.250000 1.662939
v 1.111140 27.250000 1.662939
v 0.765367 -27.250000 1.847759
v 0.765367 27.250000 1.847759
v 0.390180 -27.250000 1.961571
v 0.390180 27.250000 1.961571
v -0.000001 -27.250000 2.000000
v -0.000001 27.250000 2.000000
v -0.390181 -27.250000 1.961570
v -0.390181 27.250000 1.961570
v -0.765368 -27.250000 1.847759
v -0.765368 27.250000 1.847759
v -1.111141 -27.250000 1.662939
v -1.111141 27.250000 1.662939
v -1.414214 -27.250000 1.414213
v -1.414214 27.250000 1.414213
v -1.662940 -27.250000 1.111139
v -1.662940 27.250000 1.111139
v -1.847760 -27.250000 0.765365
v -1.847760 27.250000 0.765365
v -1.961571 -27.250000 0.390179
v -1.961571 27.250000 0.390179
v -2.000000 -27.250000 -0.000002
v -2.000000 27.250000 -0.000002
v -1.961570 -27.250000 -0.390183
v -1.961570 27.250000 -0.390183
v -1.847758 -27.250000 -0.765369
v -1.847758 27.250000 -0.765369
v -1.662938 -27.250000 -1.111143
v -1.662938 27.250000 -1.111143
v -1.414212 -27.250000 -1.414215
v -1.414212 27.250000 -1.414215
v -1.111138 -27.250000 -1.662941
v -1.111138 27.250000 -1.662941
v -0.765364 -27.250000 -1.847760
v -0.765364 27.250000 -1.847760
v -0.390178 -27.250000 -1.961571
v -0.390178 27.250000 -1.961571
v 0.000000 -27.250000 -2.478155
v 0.483464 -27.250000 -2.430538
v 0.483464 27.250000 -2.430538
v 0.000000 27.250000 -2.478155
v 0.948349 -27.250000 -2.289516
v 0.948349 27.250000 -2.289516
v 1.376789 -27.250000 -2.060510
v 1.376789 27.250000 -2.060510
v 1.752320 -27.250000 -1.752320
v 1.752320 27.250000 -1.752320
v 2.060510 -27.250000 -1.376789
v 2.060510 27.250000 -1.376789
v 2.289516 -27.250000 -0.948349
v 2.289516 27.250000 -0.948349
v 2.430538 -27.250000 -0.483464
v 2.430538 27.250000 -0.483464
v 2.478155 -27.250000 -0.000000
v 2.478155 27.250000 -0.000000
v 2.430538 -27.250000 0.483464
v 2.430538 27.250000 0.483464
v 2.289516 -27.250000 0.948348
v 2.289516 27.250000 0.948348
v 2.060511 -27.250000 1.376789
v 2.060511 27.250000 1.376789
v 1.752320 -27.250000 1.752320
v 1.752320 27.250000 1.752320
v 1.376789 -27.250000 2.060510
v 1.376789 27.250000 2.060510
v 0.948348 -27.250000 2.289517
v 0.948348 27.250000 2.289517
v 0.483463 -27.250000 2.430538
v 0.483463 27.250000 2.430538
v -0.000001 -27.250000 2.478155
v -0.000001 27.250000 2.478155
v -0.483465 -27.250000 2.430537
v -0.483465 27.250000 2.430537
v -0.948350 -27.250000 2.289516
v -0.948350 27.250000 2.289516
v -1.376790 -27.250000 2.060510
v -1.376790 27.250000 2.060510
v -1.752321 -27.250000 1.752319
v -1.752321 27.250000 1.752319
v -2.060511 -27.250000 1.376788
v -2.060511 27.250000 1.376788
v -2.289517 -27.250000 0.948347
v -2.289517 27.250000 0.948347
v -2.430538 -27.250000 0.483462
v -2.430538 27.250000 0.483462
v -2.478155 -27.250000 -0.000002
v -2.478155 27.250000 -0.000002
v -2.430537 -27.250000 -0.483467
v -2.430537 27.250000 -0.483467
v -2.289515 -27.250000 -0.948351
v -2.289515 27.250000 -0.948351
v -2.060509 -27.250000 -1.376791
v -2.060509 27.250000 -1.376791
v -1.752318 -27.250000 -1.752322
v -1.752318 27.250000 -1.752322
v -1.376786 -27.250000 -2.060512
v -1.376786 27.250000 -2.060512
v -0.948345 -27.250000 -2.289518
v -0.948345 27.250000 -2.289518
v -0.483460 -27.250000 -2.430538
v -0.483460 27.250000 -2.430538
vt 1.000000 0.500000
vt 0.968750 0.500000
vt 0.968750 1.000000
vt 1.000000 1.000000
vt 0.937500 0.500000
vt 0.937500 1.000000
vt 0.906250 0.500000
vt 0.906250 1.000000
vt 0.875000 0.500000
vt 0.875000 1.000000
vt 0.843750 0.500000
vt 0.843750 1.000000
vt 0.812500 0.500000
vt 0.812500 1.000000
vt 0.781250 0.500000
vt 0.781250 1.000000
vt 0.750000 0.500000
vt 0.750000 1.000000
vt 0.718750 0.500000
vt 0.718750 1.000000
vt 0.687500 0.500000
vt 0.687500 1.000000
vt 0.656250 0.500000
vt 0.656250 1.000000
vt 0.625000 0.500000
vt 0.625000 1.000000
vt 0.593750 0.500000
vt 0.593750 1.000000
vt 0.562500 0.500000
vt 0.562500 1.000000
vt 0.531250 0.500000
vt 0.531250 1.000000
vt 0.500000 0.500000
vt 0.500000 1.000000
vt 0.468750 0.500000
vt 0.468750 1.000000
vt 0.437500 0.500000
vt 0.437500 1.000000
vt 0.406250 0.500000
vt 0.406250 1.000000
vt 0.375000 0.500000
vt 0.375000 1.000000
vt 0.343750 0.500000
vt 0.343750 1.000000
vt 0.312500 0.500000
vt 0.312500 1.000000
vt 0.281250 0.500000
vt 0.281250 1.000000
vt 0.250000 0.500000
vt 0.250000 1.000000
vt 0.218750 0.500000
vt 0.218750 1.000000
vt 0.187500 0.500000
vt 0.187500 1.000000
vt 0.156250 0.500000
vt 0.156250 1.000000
vt 0.125000 0.500000
vt 0.125000 1.000000
vt 0.093750 0.500000
vt 0.093750 1.000000
vt 0.062500 0.500000
vt 0.062500 1.000000
vt 0.031250 0.500000
vt 0.031250 1.000000
vt 0.000000 0.500000
vt 0.000000 1.000000
vt 1.000000 0.500000
vt 1.000000 1.000000
vt 0.968750 1.000000
vt 0.968750 0.500000
vt 0.937500 1.000000
vt 0.937500 0.500000
vt 0.906250 1.000000
vt 0.906250 0.500000
vt 0.875000 1.000000
vt 0.875000 0.500000
vt 0.843750 1.000000
vt 0.843750 0.500000
vt 0.812500 1.000000
vt 0.812500 0.500000
vt 0.781250 1.000000
vt 0.781250 0.500000
vt 0.750000 1.000000
vt 0.750000 0.500000
vt 0.718750 1.000000
vt 0.718750 0.500000
vt 0.687500 1.000000
vt 0.687500 0.500000
vt 0.656250 1.000000
vt 0.656250 0.500000
vt 0.625000 1.000000
vt 0.625000 0.500000
vt 0.593750 1.000000
vt 0.593750 0.500000
vt 0.562500 1.000000
vt 0.562500 0.500000
vt 0.531250 1.000000
vt 0.531250 0.500000
vt 0.500000 1.000000
vt 0.500000 0.500000
vt 0.468750 1.000000
vt 0.468750 0.500000
vt 0.437500 1.000000
vt 0.437500 0.500000
vt 0.406250 1.000000
vt 0.406250 0.500000
vt 0.375000 1.000000
vt 0.375000 0.500000
vt 0.343750 1.000000
vt 0.343750 0.500000
vt 0.312500 1.000000
vt 0.312500 0.500000
vt 0.281250 1.000000
vt 0.281250 0.500000
vt 0.250000 1.000000
vt 0.250000 0.500000
vt 0.218750 1.000000
vt 0.218750 0.500000
vt 0.187500 1.000000
vt 0.187500 0.500000
vt 0.156250 1.000000
vt 0.156250 0.500000
vt 0.125000 1.000000
vt 0.125000 0.500000
vt 0.093750 1.000000
vt 0.093750 0.500000
vt 0.062500 1.000000
vt 0.062500 0.500000
vt 0.031250 1.000000
vt 0.031250 0.500000
vt 0.000000 1.000000
vt 0.000000 0.500000
vn -0.0980 0.0000 0.9952
vn -0.2903 0.0000 0.9569
vn -0.4714 0.0000 0.8819
vn -0.6344 0.0000 0.7730
vn -0.7730 0.0000 0.6344
vn -0.8819 0.0000 0.4714
vn -0.9569 0.0000 0.2903
vn -0.9952 0.0000 0.0980
vn -0.9952 0.0000 -0.0980
vn -0.9569 0.0000 -0.2903
vn -0.8819 0.0000 -0.4714
vn -0.7730 0.0000 -0.6344
vn -0.6344 0.0000 -0.7730
vn -0.4714 0.0000 -0.8819
vn -0.2903 0.0000 -0.9569
vn -0.0980 0.0000 -0.9952
vn 0.0980 0.0000 -0.9952
vn 0.2903 0.0000 -0.9569
vn 0.4714 0.0000 -0.8819
vn 0.6344 0.0000 -0.7730
vn 0.7730 0.0000 -0.6344
vn 0.8819 0.0000 -0.4714
vn 0.9569 0.0000 -0.2903
vn 0.9952 0.0000 -0.0980
vn 0.9952 0.0000 0.0980
vn 0.9569 0.0000 0.2903
vn 0.8819 0.0000 0.4714
vn 0.7730 0.0000 0.6344
vn 0.6344 0.0000 0.7730
vn 0.4714 0.0000 0.8819
vn 0.2903 0.0000 0.9569
vn 0.0980 0.0000 0.9952
vn 0.0000 -1.0000 -0.0000
vn 0.0000 1.0000 -0.0000
usemtl None
s off
f 1/1/1 3/2/1 4/3/1 2/4/1
f 3/2/2 5/5/2 6/6/2 4/3/2
f 5/5/3 7/7/3 8/8/3 6/6/3
f 7/7/4 9/9/4 10/10/4 8/8/4
f 9/9/5 11/11/5 12/12/5 10/10/5
f 11/11/6 13/13/6 14/14/6 12/12/6
f 13/13/7 15/15/7 16/16/7 14/14/7
f 15/15/8 17/17/8 18/18/8 16/16/8
f 17/17/9 19/19/9 20/20/9 18/18/9
f 19/19/10 21/21/10 22/22/10 20/20/10
f 21/21/11 23/23/11 24/24/11 22/22/11
f 23/23/12 25/25/12 26/26/12 24/24/12
f 25/25/13 27/27/13 28/28/13 26/26/13
f 27/27/14 29/29/14 30/30/14 28/28/14
f 29/29/15 31/31/15 32/32/15 30/30/15
f 31/31/16 33/33/16 34/34/16 32/32/16
f 33/33/17 35/35/17 36/36/17 34/34/17
f 35/35/18 37/37/18 38/38/18 36/36/18
f 37/37/19 39/39/19 40/40/19 38/38/19
f 39/39/20 41/41/20 42/42/20 40/40/20
f 41/41/21 43/43/21 44/44/21 42/42/21
f 43/43/22 45/45/22 46/46/22 44/44/22
f 45/45/23 47/47/23 48/48/23 46/46/23
f 47/47/24 49/49/24 50/50/24 48/48/24
f 49/49/25 51/51/25 52/52/25 50/50/25
f 51/51/26 53/53/26 54/54/26 52/52/26
f 53/53/27 55/55/27 56/56/27 54/54/27
f 55/55/28 57/57/28 58/58/28 56/56/28
f 57/57/29 59/59/29 60/60/29 58/58/29
f 59/59/30 61/61/30 62/62/30 60/60/30
f 61/61/31 63/63/31 64/64/31 62/62/31
f 63/63/32 1/65/32 2/66/32 64/64/32
f 65/67/17 68/68/17 67/69/17 66/70/17
f 66/70/18 67/69/18 70/71/18 69/72/18
f 69/72/19 70/71/19 72/73/19 71/74/19
f 71/74/20 72/73/20 74/75/20 73/76/20
f 73/76/21 74/75/21 76/77/21 75/78/21
f 75/78/22 76/77/22 78/79/22 77/80/22
f 77/80/23 78/79/23 80/81/23 79/82/23
f 79/82/24 80/81/24 82/83/24 81/84/24
f 81/84/25 82/83/25 84/85/25 83/86/25
f 83/86/26 84/85/26 86/87/26 85/88/26
f 85/88/27 86/87/27 88/89/27 87/90/27
f 87/90/28 88/89/28 90/91/28 89/92/28
f 89/92/29 90/91/29 92/93/29 91/94/29
f 91/94/30 92/93/30 94/95/30 93/96/30
f 93/96/31 94/95/31 96/97/31 95/98/31
f 95/98/32 96/97/32 98/99/32 97/100/32
f 97/100/1 98/99/1 100/101/1 99/102/1
f 99/102/2 100/101/2 102/103/2 101/104/2
f 101/104/3 102/103/3 104/105/3 103/106/3
f 103/106/4 104/105/4 106/107/4 105/108/4
f 105/108/5 106/107/5 108/109/5 107/110/5
f 107/110/6 108/109/6 110/111/6 109/112/6
f 109/112/7 110/111/7 112/113/7 111/114/7
f 111/114/8 112/113/8 114/115/8 113/116/8
f 113/116/9 114/115/9 116/117/9 115/118/9
f 115/118/10 116/117/10 118/119/10 117/120/10
f 117/120/11 118/119/11 120/121/11 119/122/11
f 119/122/12 120/121/12 122/123/12 121/124/12
f 121/124/13 122/123/13 124/125/13 123/126/13
f 123/126/14 124/125/14 126/127/14 125/128/14
f 125/128/15 126/127/15 128/129/15 127/130/15
f 127/130/16 128/129/16 68/131/16 65/132/16
f 41/41/33 39/39/33 103/106/33 105/108/33
f 22/22/34 24/24/34 88/89/34 86/87/34
f 59/59/33 57/57/33 121/124/33 123/126/33
f 40/40/34 42/42/34 106/107/34 104/105/34
f 7/7/33 5/5/33 69/72/33 71/74/33
f 58/58/34 60/60/34 124/125/34 122/123/34
f 25/25/33 23/23/33 87/90/33 89/92/33
f 6/6/34 8/8/34 72/73/34 70/71/34
f 43/43/33 41/41/33 105/108/33 107/110/33
f 24/24/34 26/26/34 90/91/34 88/89/34
f 61/61/33 59/59/33 123/126/33 125/128/33
f 42/42/34 44/44/34 108/109/34 106/107/34
f 9/9/33 7/7/33 71/74/33 73/76/33
f 60/60/34 62/62/34 126/127/34 124/125/34
f 27/27/33 25/25/33 89/92/33 91/94/33
f 8/8/34 10/10/34 74/75/34 72/73/34
f 45/45/33 43/43/33 107/110/33 109/112/33
f 26/26/34 28/28/34 92/93/34 90/91/34
f 63/63/33 61/61/33 125/128/33 127/130/33
f 44/44/34 46/46/34 110/111/34 108/109/34
f 11/11/33 9/9/33 73/76/33 75/78/33
f 62/62/34 64/64/34 128/129/34 126/127/34
f 29/29/33 27/27/33 91/94/33 93/96/33
f 10/10/34 12/12/34 76/77/34 74/75/34
f 47/47/33 45/45/33 109/112/33 111/114/33
f 28/28/34 30/30/34 94/95/34 92/93/34
f 1/65/33 63/63/33 127/130/33 65/132/33
f 46/46/34 48/48/34 112/113/34 110/111/34
f 13/13/33 11/11/33 75/78/33 77/80/33
f 64/64/34 2/66/34 68/131/34 128/129/34
f 31/31/33 29/29/33 93/96/33 95/98/33
f 12/12/34 14/14/34 78/79/34 76/77/34
f 49/49/33 47/47/33 111/114/33 113/116/33
f 30/30/34 32/32/34 96/97/34 94/95/34
f 48/48/34 50/50/34 114/115/34 112/113/34
f 15/15/33 13/13/33 77/80/33 79/82/33
f 33/33/33 31/31/33 95/98/33 97/100/33
f 14/14/34 16/16/34 80/81/34 78/79/34
f 51/51/33 49/49/33 113/116/33 115/118/33
f 32/32/34 34/34/34 98/99/34 96/97/34
f 50/50/34 52/52/34 116/117/34 114/115/34
f 17/17/33 15/15/33 79/82/33 81/84/33
f 35/35/33 33/33/33 97/100/33 99/102/33
f 16/16/34 18/18/34 82/83/34 80/81/34
f 53/53/33 51/51/33 115/118/33 117/120/33
f 34/34/34 36/36/34 100/101/34 98/99/34
f 52/52/34 54/54/34 118/119/34 116/117/34
f 19/19/33 17/17/33 81/84/33 83/86/33
f 37/37/33 35/35/33 99/102/33 101/104/33
f 18/18/34 20/20/34 84/85/34 82/83/34
f 3/2/33 1/1/33 65/67/33 66/70/33
f 55/55/33 53/53/33 117/120/33 119/122/33
f 36/36/34 38/38/34 102/103/34 100/101/34
f 2/4/34 4/3/34 67/69/34 68/68/34
f 54/54/34 56/56/34 120/121/34 118/119/34
f 21/21/33 19/19/33 83/86/33 85/88/33
f 39/39/33 37/37/33 101/104/33 103/106/33
f 20/20/34 22/22/34 86/87/34 84/85/34
f 57/57/33 55/55/33 119/122/33 121/124/33
f 38/38/34 40/40/34 104/105/34 102/103/34
f 5/5/33 3/2/33 66/70/33 69/72/33
f 56/56/34 58/58/34 122/123/34 120/121/34
f 23/23/33 21/21/33 85/88/33 87/90/33
f 4/3/34 6/6/34 70/71/34 67/69/34
