# Blender v2.90.0 OBJ File: 'cylinder2.blend'
# www.blender.org
mtllib cylinder_y.mtl
o Cylinder_Cylinder.001
v -40.290001 0.000002 -1.375000
v 40.290001 -0.000002 -1.375000
v -40.290001 -0.172331 -1.364158
v 40.290001 -0.172335 -1.364158
v -40.290001 -0.341947 -1.331802
v 40.290001 -0.341950 -1.331802
v -40.290001 -0.506169 -1.278443
v 40.290001 -0.506173 -1.278443
v -40.290001 -0.662410 -1.204922
v 40.290001 -0.662413 -1.204922
v -40.290001 -0.808203 -1.112398
v 40.290001 -0.808206 -1.112398
v -40.290001 -0.941251 -1.002332
v 40.290001 -0.941254 -1.002332
v -40.290001 -1.059454 -0.876458
v 40.290001 -1.059458 -0.876458
v -40.290001 -1.160949 -0.736762
v 40.290001 -1.160953 -0.736762
v -40.290001 -1.244135 -0.585446
v 40.290001 -1.244139 -0.585446
v -40.290001 -1.307701 -0.424898
v 40.290001 -1.307705 -0.424898
v -40.290001 -1.350643 -0.257649
v 40.290001 -1.350647 -0.257649
v -40.290001 -1.372285 -0.086337
v 40.290001 -1.372289 -0.086337
v -40.290001 -1.372285 0.086337
v 40.290001 -1.372289 0.086337
v -40.290001 -1.350643 0.257650
v 40.290001 -1.350647 0.257650
v -40.290001 -1.307701 0.424899
v 40.290001 -1.307704 0.424899
v -40.290001 -1.244135 0.585447
v 40.290001 -1.244139 0.585447
v -40.290001 -1.160949 0.736762
v 40.290001 -1.160952 0.736762
v -40.290001 -1.059453 0.876458
v 40.290001 -1.059457 0.876458
v -40.290001 -0.941250 1.002332
v 40.290001 -0.941254 1.002332
v -40.290001 -0.808202 1.112399
v 40.290001 -0.808206 1.112399
v -40.290001 -0.662409 1.204922
v 40.290001 -0.662412 1.204922
v -40.290001 -0.506169 1.278443
v 40.290001 -0.506172 1.278443
v -40.290001 -0.341946 1.331802
v 40.290001 -0.341949 1.331802
v -40.290001 -0.172330 1.364158
v 40.290001 -0.172334 1.364158
v -40.290001 0.000003 1.375000
v 40.290001 -0.000001 1.375000
v -40.290001 0.172336 1.364158
v 40.290001 0.172333 1.364158
v -40.290001 0.341952 1.331802
v 40.290001 0.341948 1.331802
v -40.290001 0.506174 1.278442
v 40.290001 0.506171 1.278442
v -40.290001 0.662414 1.204921
v 40.290001 0.662411 1.204921
v -40.290001 0.808208 1.112397
v 40.290001 0.808204 1.112397
v -40.290001 0.941255 1.002331
v 40.290001 0.941252 1.002331
v -40.290001 1.059459 0.876457
v 40.290001 1.059455 0.876457
v -40.290001 1.160954 0.736760
v 40.290001 1.160950 0.736760
v -40.290001 1.244140 0.585445
v 40.290001 1.244136 0.585445
v -40.290001 1.307705 0.424897
v 40.290001 1.307701 0.424897
v -40.290001 1.350647 0.257647
v 40.290001 1.350644 0.257647
v -40.290001 1.372289 0.086335
v 40.290001 1.372285 0.086335
v -40.290001 1.372288 -0.086339
v 40.290001 1.372285 -0.086339
v -40.290001 1.350646 -0.257651
v 40.290001 1.350643 -0.257651
v -40.290001 1.307704 -0.424900
v 40.290001 1.307700 -0.424900
v -40.290001 1.244138 -0.585449
v 40.290001 1.244134 -0.585449
v -40.290001 1.160951 -0.736764
v 40.290001 1.160948 -0.736764
v -40.290001 1.059456 -0.876460
v 40.290001 1.059452 -0.876460
v -40.290001 0.941252 -1.002334
v 40.290001 0.941249 -1.002334
v -40.290001 0.808204 -1.112400
v 40.290001 0.808201 -1.112400
v -40.290001 0.662411 -1.204923
v 40.290001 0.662407 -1.204923
v -40.290001 0.506171 -1.278444
v 40.290001 0.506167 -1.278444
v -40.290001 0.341948 -1.331802
v 40.290001 0.341944 -1.331802
v -40.290001 0.172332 -1.364158
v 40.290001 0.172329 -1.364158
v -40.290001 0.000002 -1.636389
v -40.290001 -0.205092 -1.623486
v 40.290001 -0.205096 -1.623486
v 40.290001 -0.000002 -1.636389
v -40.290001 -0.406952 -1.584979
v 40.290001 -0.406955 -1.584979
v -40.290001 -0.602393 -1.521476
v 40.290001 -0.602397 -1.521476
v -40.290001 -0.788335 -1.433979
v 40.290001 -0.788338 -1.433979
v -40.290001 -0.961844 -1.323867
v 40.290001 -0.961847 -1.323867
v -40.290001 -1.120184 -1.192876
v 40.290001 -1.120187 -1.192876
v -40.290001 -1.260858 -1.043074
v 40.290001 -1.260861 -1.043074
v -40.290001 -1.381647 -0.876821
v 40.290001 -1.381651 -0.876821
v -40.290001 -1.480647 -0.696740
v 40.290001 -1.480651 -0.696740
v -40.290001 -1.556297 -0.505672
v 40.290001 -1.556300 -0.505672
v -40.290001 -1.607402 -0.306628
v 40.290001 -1.607406 -0.306628
v -40.290001 -1.633158 -0.102749
v 40.290001 -1.633162 -0.102749
v -40.290001 -1.633158 0.102750
v 40.290001 -1.633162 0.102750
v -40.290001 -1.607402 0.306629
v 40.290001 -1.607406 0.306629
v -40.290001 -1.556296 0.505673
v 40.290001 -1.556300 0.505673
v -40.290001 -1.480647 0.696741
v 40.290001 -1.480651 0.696741
v -40.290001 -1.381647 0.876822
v 40.290001 -1.381650 0.876822
v -40.290001 -1.260857 1.043074
v 40.290001 -1.260861 1.043074
v -40.290001 -1.120183 1.192877
v 40.290001 -1.120187 1.192877
v -40.290001 -0.961843 1.323867
v 40.290001 -0.961846 1.323867
v -40.290001 -0.788334 1.433979
v 40.290001 -0.788337 1.433979
v -40.290001 -0.602392 1.521476
v 40.290001 -0.602396 1.521476
v -40.290001 -0.406951 1.584979
v 40.290001 -0.406954 1.584979
v -40.290001 -0.205091 1.623486
v 40.290001 -0.205094 1.623486
v -40.290001 0.000003 1.636389
v 40.290001 -0.000000 1.636389
v -40.290001 0.205097 1.623486
v 40.290001 0.205094 1.623486
v -40.290001 0.406957 1.584978
v 40.290001 0.406953 1.584978
v -40.290001 0.602398 1.521476
v 40.290001 0.602395 1.521476
v -40.290001 0.788340 1.433978
v 40.290001 0.788336 1.433978
v -40.290001 0.961849 1.323865
v 40.290001 0.961845 1.323865
v -40.290001 1.120188 1.192875
v 40.290001 1.120185 1.192875
v -40.290001 1.260862 1.043072
v 40.290001 1.260859 1.043072
v -40.290001 1.381652 0.876819
v 40.290001 1.381648 0.876819
v -40.290001 1.480652 0.696739
v 40.290001 1.480648 0.696739
v -40.290001 1.556301 0.505670
v 40.290001 1.556297 0.505670
v -40.290001 1.607406 0.306627
v 40.290001 1.607403 0.306627
v -40.290001 1.633162 0.102747
v 40.290001 1.633158 0.102747
v -40.290001 1.633162 -0.102752
v 40.290001 1.633158 -0.102752
v -40.290001 1.607406 -0.306631
v 40.290001 1.607402 -0.306631
v -40.290001 1.556299 -0.505674
v 40.290001 1.556296 -0.505674
v -40.290001 1.480650 -0.696743
v 40.290001 1.480646 -0.696743
v -40.290001 1.381649 -0.876823
v 40.290001 1.381646 -0.876823
v -40.290001 1.260859 -1.043076
v 40.290001 1.260856 -1.043076
v -40.290001 1.120185 -1.192878
v 40.290001 1.120181 -1.192878
v -40.290001 0.961845 -1.323868
v 40.290001 0.961841 -1.323868
v -40.290001 0.788336 -1.433980
v 40.290001 0.788332 -1.433980
v -40.290001 0.602394 -1.521477
v 40.290001 0.602390 -1.521477
v -40.290001 0.406952 -1.584980
v 40.290001 0.406949 -1.584980
v -40.290001 0.205093 -1.623486
v 40.290001 0.205089 -1.623486
vt 1.000000 0.500000
vt 0.980000 0.500000
vt 0.980000 1.000000
vt 1.000000 1.000000
vt 0.960000 0.500000
vt 0.960000 1.000000
vt 0.940000 0.500000
vt 0.940000 1.000000
vt 0.920000 0.500000
vt 0.920000 1.000000
vt 0.900000 0.500000
vt 0.900000 1.000000
vt 0.880000 0.500000
vt 0.880000 1.000000
vt 0.860000 0.500000
vt 0.860000 1.000000
vt 0.840000 0.500000
vt 0.840000 1.000000
vt 0.820000 0.500000
vt 0.820000 1.000000
vt 0.800000 0.500000
vt 0.800000 1.000000
vt 0.780000 0.500000
vt 0.780000 1.000000
vt 0.760000 0.500000
vt 0.760000 1.000000
vt 0.740000 0.500000
vt 0.740000 1.000000
vt 0.720000 0.500000
vt 0.720000 1.000000
vt 0.700000 0.500000
vt 0.700000 1.000000
vt 0.680000 0.500000
vt 0.680000 1.000000
vt 0.660000 0.500000
vt 0.660000 1.000000
vt 0.640000 0.500000
vt 0.640000 1.000000
vt 0.620000 0.500000
vt 0.620000 1.000000
vt 0.600000 0.500000
vt 0.600000 1.000000
vt 0.580000 0.500000
vt 0.580000 1.000000
vt 0.560000 0.500000
vt 0.560000 1.000000
vt 0.540000 0.500000
vt 0.540000 1.000000
vt 0.520000 0.500000
vt 0.520000 1.000000
vt 0.500000 0.500000
vt 0.500000 1.000000
vt 0.480000 0.500000
vt 0.480000 1.000000
vt 0.460000 0.500000
vt 0.460000 1.000000
vt 0.440000 0.500000
vt 0.440000 1.000000
vt 0.420000 0.500000
vt 0.420000 1.000000
vt 0.400000 0.500000
vt 0.400000 1.000000
vt 0.380000 0.500000
vt 0.380000 1.000000
vt 0.360000 0.500000
vt 0.360000 1.000000
vt 0.340000 0.500000
vt 0.340000 1.000000
vt 0.320000 0.500000
vt 0.320000 1.000000
vt 0.300000 0.500000
vt 0.300000 1.000000
vt 0.280000 0.500000
vt 0.280000 1.000000
vt 0.260000 0.500000
vt 0.260000 1.000000
vt 0.240000 0.500000
vt 0.240000 1.000000
vt 0.220000 0.500000
vt 0.220000 1.000000
vt 0.200000 0.500000
vt 0.200000 1.000000
vt 0.180000 0.500000
vt 0.180000 1.000000
vt 0.160000 0.500000
vt 0.160000 1.000000
vt 0.140000 0.500000
vt 0.140000 1.000000
vt 0.120000 0.500000
vt 0.120000 1.000000
vt 0.100000 0.500000
vt 0.100000 1.000000
vt 0.080000 0.500000
vt 0.080000 1.000000
vt 0.060000 0.500000
vt 0.060000 1.000000
vt 0.040000 0.500000
vt 0.040000 1.000000
vt 0.020000 0.500000
vt 0.020000 1.000000
vt 0.000000 0.500000
vt 0.000000 1.000000
vt 1.000000 0.500000
vt 1.000000 1.000000
vt 0.980000 1.000000
vt 0.980000 0.500000
vt 0.960000 1.000000
vt 0.960000 0.500000
vt 0.940000 1.000000
vt 0.940000 0.500000
vt 0.920000 1.000000
vt 0.920000 0.500000
vt 0.900000 1.000000
vt 0.900000 0.500000
vt 0.880000 1.000000
vt 0.880000 0.500000
vt 0.860000 1.000000
vt 0.860000 0.500000
vt 0.840000 1.000000
vt 0.840000 0.500000
vt 0.820000 1.000000
vt 0.820000 0.500000
vt 0.800000 1.000000
vt 0.800000 0.500000
vt 0.780000 1.000000
vt 0.780000 0.500000
vt 0.760000 1.000000
vt 0.760000 0.500000
vt 0.740000 1.000000
vt 0.740000 0.500000
vt 0.720000 1.000000
vt 0.720000 0.500000
vt 0.700000 1.000000
vt 0.700000 0.500000
vt 0.680000 1.000000
vt 0.680000 0.500000
vt 0.660000 1.000000
vt 0.660000 0.500000
vt 0.640000 1.000000
vt 0.640000 0.500000
vt 0.620000 1.000000
vt 0.620000 0.500000
vt 0.600000 1.000000
vt 0.600000 0.500000
vt 0.580000 1.000000
vt 0.580000 0.500000
vt 0.560000 1.000000
vt 0.560000 0.500000
vt 0.540000 1.000000
vt 0.540000 0.500000
vt 0.520000 1.000000
vt 0.520000 0.500000
vt 0.500000 1.000000
vt 0.500000 0.500000
vt 0.480000 1.000000
vt 0.480000 0.500000
vt 0.460000 1.000000
vt 0.460000 0.500000
vt 0.440000 1.000000
vt 0.440000 0.500000
vt 0.420000 1.000000
vt 0.420000 0.500000
vt 0.400000 1.000000
vt 0.400000 0.500000
vt 0.380000 1.000000
vt 0.380000 0.500000
vt 0.360000 1.000000
vt 0.360000 0.500000
vt 0.340000 1.000000
vt 0.340000 0.500000
vt 0.320000 1.000000
vt 0.320000 0.500000
vt 0.300000 1.000000
vt 0.300000 0.500000
vt 0.280000 1.000000
vt 0.280000 0.500000
vt 0.260000 1.000000
vt 0.260000 0.500000
vt 0.240000 1.000000
vt 0.240000 0.500000
vt 0.220000 1.000000
vt 0.220000 0.500000
vt 0.200000 1.000000
vt 0.200000 0.500000
vt 0.180000 1.000000
vt 0.180000 0.500000
vt 0.160000 1.000000
vt 0.160000 0.500000
vt 0.140000 1.000000
vt 0.140000 0.500000
vt 0.120000 1.000000
vt 0.120000 0.500000
vt 0.100000 1.000000
vt 0.100000 0.500000
vt 0.080000 1.000000
vt 0.080000 0.500000
vt 0.060000 1.000000
vt 0.060000 0.500000
vt 0.040000 1.000000
vt 0.040000 0.500000
vt 0.020000 1.000000
vt 0.020000 0.500000
vt 0.000000 1.000000
vt 0.000000 0.500000
vn 0.0000 0.0628 0.9980
vn 0.0000 0.1874 0.9823
vn 0.0000 0.3090 0.9511
vn 0.0000 0.4258 0.9048
vn 0.0000 0.5358 0.8443
vn 0.0000 0.6374 0.7705
vn 0.0000 0.7290 0.6845
vn 0.0000 0.8090 0.5878
vn 0.0000 0.8763 0.4818
vn 0.0000 0.9298 0.3681
vn 0.0000 0.9686 0.2487
vn 0.0000 0.9921 0.1253
vn 0.0000 1.0000 0.0000
vn 0.0000 0.9921 -0.1253
vn 0.0000 0.9686 -0.2487
vn 0.0000 0.9298 -0.3681
vn 0.0000 0.8763 -0.4818
vn 0.0000 0.8090 -0.5878
vn 0.0000 0.7290 -0.6845
vn 0.0000 0.6374 -0.7705
vn 0.0000 0.5358 -0.8443
vn 0.0000 0.4258 -0.9048
vn 0.0000 0.3090 -0.9511
vn 0.0000 0.1874 -0.9823
vn 0.0000 0.0628 -0.9980
vn -0.0000 -0.0628 -0.9980
vn -0.0000 -0.1874 -0.9823
vn -0.0000 -0.3090 -0.9511
vn -0.0000 -0.4258 -0.9048
vn -0.0000 -0.5358 -0.8443
vn -0.0000 -0.6374 -0.7705
vn -0.0000 -0.7290 -0.6845
vn -0.0000 -0.8090 -0.5878
vn -0.0000 -0.8763 -0.4818
vn -0.0000 -0.9298 -0.3681
vn -0.0000 -0.9686 -0.2487
vn -0.0000 -0.9921 -0.1253
vn -0.0000 -1.0000 0.0000
vn -0.0000 -0.9921 0.1253
vn -0.0000 -0.9686 0.2487
vn -0.0000 -0.9298 0.3681
vn -0.0000 -0.8763 0.4818
vn -0.0000 -0.8090 0.5878
vn -0.0000 -0.7290 0.6845
vn -0.0000 -0.6374 0.7705
vn -0.0000 -0.5358 0.8443
vn -0.0000 -0.4258 0.9048
vn -0.0000 -0.3090 0.9511
vn -0.0000 -0.1874 0.9823
vn -0.0000 -0.0628 0.9980
vn -1.0000 0.0000 0.0000
vn 1.0000 0.0000 0.0000
usemtl None
s off
f 1/1/1 3/2/1 4/3/1 2/4/1
f 3/2/2 5/5/2 6/6/2 4/3/2
f 5/5/3 7/7/3 8/8/3 6/6/3
f 7/7/4 9/9/4 10/10/4 8/8/4
f 9/9/5 11/11/5 12/12/5 10/10/5
f 11/11/6 13/13/6 14/14/6 12/12/6
f 13/13/7 15/15/7 16/16/7 14/14/7
f 15/15/8 17/17/8 18/18/8 16/16/8
f 17/17/9 19/19/9 20/20/9 18/18/9
f 19/19/10 21/21/10 22/22/10 20/20/10
f 21/21/11 23/23/11 24/24/11 22/22/11
f 23/23/12 25/25/12 26/26/12 24/24/12
f 25/25/13 27/27/13 28/28/13 26/26/13
f 27/27/14 29/29/14 30/30/14 28/28/14
f 29/29/15 31/31/15 32/32/15 30/30/15
f 31/31/16 33/33/16 34/34/16 32/32/16
f 33/33/17 35/35/17 36/36/17 34/34/17
f 35/35/18 37/37/18 38/38/18 36/36/18
f 37/37/19 39/39/19 40/40/19 38/38/19
f 39/39/20 41/41/20 42/42/20 40/40/20
f 41/41/21 43/43/21 44/44/21 42/42/21
f 43/43/22 45/45/22 46/46/22 44/44/22
f 45/45/23 47/47/23 48/48/23 46/46/23
f 47/47/24 49/49/24 50/50/24 48/48/24
f 49/49/25 51/51/25 52/52/25 50/50/25
f 51/51/26 53/53/26 54/54/26 52/52/26
f 53/53/27 55/55/27 56/56/27 54/54/27
f 55/55/28 57/57/28 58/58/28 56/56/28
f 57/57/29 59/59/29 60/60/29 58/58/29
f 59/59/30 61/61/30 62/62/30 60/60/30
f 61/61/31 63/63/31 64/64/31 62/62/31
f 63/63/32 65/65/32 66/66/32 64/64/32
f 65/65/33 67/67/33 68/68/33 66/66/33
f 67/67/34 69/69/34 70/70/34 68/68/34
f 69/69/35 71/71/35 72/72/35 70/70/35
f 71/71/36 73/73/36 74/74/36 72/72/36
f 73/73/37 75/75/37 76/76/37 74/74/37
f 75/75/38 77/77/38 78/78/38 76/76/38
f 77/77/39 79/79/39 80/80/39 78/78/39
f 79/79/40 81/81/40 82/82/40 80/80/40
f 81/81/41 83/83/41 84/84/41 82/82/41
f 83/83/42 85/85/42 86/86/42 84/84/42
f 85/85/43 87/87/43 88/88/43 86/86/43
f 87/87/44 89/89/44 90/90/44 88/88/44
f 89/89/45 91/91/45 92/92/45 90/90/45
f 91/91/46 93/93/46 94/94/46 92/92/46
f 93/93/47 95/95/47 96/96/47 94/94/47
f 95/95/48 97/97/48 98/98/48 96/96/48
f 97/97/49 99/99/49 100/100/49 98/98/49
f 99/99/50 1/101/50 2/102/50 100/100/50
f 101/103/26 104/104/26 103/105/26 102/106/26
f 102/106/27 103/105/27 106/107/27 105/108/27
f 105/108/28 106/107/28 108/109/28 107/110/28
f 107/110/29 108/109/29 110/111/29 109/112/29
f 109/112/30 110/111/30 112/113/30 111/114/30
f 111/114/31 112/113/31 114/115/31 113/116/31
f 113/116/32 114/115/32 116/117/32 115/118/32
f 115/118/33 116/117/33 118/119/33 117/120/33
f 117/120/34 118/119/34 120/121/34 119/122/34
f 119/122/35 120/121/35 122/123/35 121/124/35
f 121/124/36 122/123/36 124/125/36 123/126/36
f 123/126/37 124/125/37 126/127/37 125/128/37
f 125/128/38 126/127/38 128/129/38 127/130/38
f 127/130/39 128/129/39 130/131/39 129/132/39
f 129/132/40 130/131/40 132/133/40 131/134/40
f 131/134/41 132/133/41 134/135/41 133/136/41
f 133/136/42 134/135/42 136/137/42 135/138/42
f 135/138/43 136/137/43 138/139/43 137/140/43
f 137/140/44 138/139/44 140/141/44 139/142/44
f 139/142/45 140/141/45 142/143/45 141/144/45
f 141/144/46 142/143/46 144/145/46 143/146/46
f 143/146/47 144/145/47 146/147/47 145/148/47
f 145/148/48 146/147/48 148/149/48 147/150/48
f 147/150/49 148/149/49 150/151/49 149/152/49
f 149/152/50 150/151/50 152/153/50 151/154/50
f 151/154/1 152/153/1 154/155/1 153/156/1
f 153/156/2 154/155/2 156/157/2 155/158/2
f 155/158/3 156/157/3 158/159/3 157/160/3
f 157/160/4 158/159/4 160/161/4 159/162/4
f 159/162/5 160/161/5 162/163/5 161/164/5
f 161/164/6 162/163/6 164/165/6 163/166/6
f 163/166/7 164/165/7 166/167/7 165/168/7
f 165/168/8 166/167/8 168/169/8 167/170/8
f 167/170/9 168/169/9 170/171/9 169/172/9
f 169/172/10 170/171/10 172/173/10 171/174/10
f 171/174/11 172/173/11 174/175/11 173/176/11
f 173/176/12 174/175/12 176/177/12 175/178/12
f 175/178/13 176/177/13 178/179/13 177/180/13
f 177/180/14 178/179/14 180/181/14 179/182/14
f 179/182/15 180/181/15 182/183/15 181/184/15
f 181/184/16 182/183/16 184/185/16 183/186/16
f 183/186/17 184/185/17 186/187/17 185/188/17
f 185/188/18 186/187/18 188/189/18 187/190/18
f 187/190/19 188/189/19 190/191/19 189/192/19
f 189/192/20 190/191/20 192/193/20 191/194/20
f 191/194/21 192/193/21 194/195/21 193/196/21
f 193/196/22 194/195/22 196/197/22 195/198/22
f 195/198/23 196/197/23 198/199/23 197/200/23
f 197/200/24 198/199/24 200/201/24 199/202/24
f 199/202/25 200/201/25 104/203/25 101/204/25
f 43/43/51 41/41/51 141/144/51 143/146/51
f 9/9/51 7/7/51 107/110/51 109/112/51
f 76/76/52 78/78/52 178/179/52 176/177/52
f 42/42/52 44/44/52 144/145/52 142/143/52
f 8/8/52 10/10/52 110/111/52 108/109/52
f 79/79/51 77/77/51 177/180/51 179/182/51
f 45/45/51 43/43/51 143/146/51 145/148/51
f 11/11/51 9/9/51 109/112/51 111/114/51
f 78/78/52 80/80/52 180/181/52 178/179/52
f 44/44/52 46/46/52 146/147/52 144/145/52
f 10/10/52 12/12/52 112/113/52 110/111/52
f 81/81/51 79/79/51 179/182/51 181/184/51
f 47/47/51 45/45/51 145/148/51 147/150/51
f 13/13/51 11/11/51 111/114/51 113/116/51
f 80/80/52 82/82/52 182/183/52 180/181/52
f 46/46/52 48/48/52 148/149/52 146/147/52
f 12/12/52 14/14/52 114/115/52 112/113/52
f 83/83/51 81/81/51 181/184/51 183/186/51
f 49/49/51 47/47/51 147/150/51 149/152/51
f 15/15/51 13/13/51 113/116/51 115/118/51
f 82/82/52 84/84/52 184/185/52 182/183/52
f 48/48/52 50/50/52 150/151/52 148/149/52
f 14/14/52 16/16/52 116/117/52 114/115/52
f 85/85/51 83/83/51 183/186/51 185/188/51
f 51/51/51 49/49/51 149/152/51 151/154/51
f 17/17/51 15/15/51 115/118/51 117/120/51
f 84/84/52 86/86/52 186/187/52 184/185/52
f 50/50/52 52/52/52 152/153/52 150/151/52
f 16/16/52 18/18/52 118/119/52 116/117/52
f 87/87/51 85/85/51 185/188/51 187/190/51
f 53/53/51 51/51/51 151/154/51 153/156/51
f 19/19/51 17/17/51 117/120/51 119/122/51
f 86/86/52 88/88/52 188/189/52 186/187/52
f 52/52/52 54/54/52 154/155/52 152/153/52
f 18/18/52 20/20/52 120/121/52 118/119/52
f 89/89/51 87/87/51 187/190/51 189/192/51
f 55/55/51 53/53/51 153/156/51 155/158/51
f 21/21/51 19/19/51 119/122/51 121/124/51
f 88/88/52 90/90/52 190/191/52 188/189/52
f 54/54/52 56/56/52 156/157/52 154/155/52
f 20/20/52 22/22/52 122/123/52 120/121/52
f 91/91/51 89/89/51 189/192/51 191/194/51
f 57/57/51 55/55/51 155/158/51 157/160/51
f 23/23/51 21/21/51 121/124/51 123/126/51
f 90/90/52 92/92/52 192/193/52 190/191/52
f 56/56/52 58/58/52 158/159/52 156/157/52
f 22/22/52 24/24/52 124/125/52 122/123/52
f 93/93/51 91/91/51 191/194/51 193/196/51
f 59/59/51 57/57/51 157/160/51 159/162/51
f 25/25/51 23/23/51 123/126/51 125/128/51
f 92/92/52 94/94/52 194/195/52 192/193/52
f 58/58/52 60/60/52 160/161/52 158/159/52
f 24/24/52 26/26/52 126/127/52 124/125/52
f 95/95/51 93/93/51 193/196/51 195/198/51
f 61/61/51 59/59/51 159/162/51 161/164/51
f 27/27/51 25/25/51 125/128/51 127/130/51
f 94/94/52 96/96/52 196/197/52 194/195/52
f 60/60/52 62/62/52 162/163/52 160/161/52
f 26/26/52 28/28/52 128/129/52 126/127/52
f 97/97/51 95/95/51 195/198/51 197/200/51
f 63/63/51 61/61/51 161/164/51 163/166/51
f 29/29/51 27/27/51 127/130/51 129/132/51
f 96/96/52 98/98/52 198/199/52 196/197/52
f 62/62/52 64/64/52 164/165/52 162/163/52
f 28/28/52 30/30/52 130/131/52 128/129/52
f 99/99/51 97/97/51 197/200/51 199/202/51
f 65/65/51 63/63/51 163/166/51 165/168/51
f 31/31/51 29/29/51 129/132/51 131/134/51
f 98/98/52 100/100/52 200/201/52 198/199/52
f 64/64/52 66/66/52 166/167/52 164/165/52
f 30/30/52 32/32/52 132/133/52 130/131/52
f 1/101/51 99/99/51 199/202/51 101/204/51
f 67/67/51 65/65/51 165/168/51 167/170/51
f 33/33/51 31/31/51 131/134/51 133/136/51
f 100/100/52 2/102/52 104/203/52 200/201/52
f 66/66/52 68/68/52 168/169/52 166/167/52
f 32/32/52 34/34/52 134/135/52 132/133/52
f 69/69/51 67/67/51 167/170/51 169/172/51
f 35/35/51 33/33/51 133/136/51 135/138/51
f 68/68/52 70/70/52 170/171/52 168/169/52
f 34/34/52 36/36/52 136/137/52 134/135/52
f 3/2/51 1/1/51 101/103/51 102/106/51
f 71/71/51 69/69/51 169/172/51 171/174/51
f 37/37/51 35/35/51 135/138/51 137/140/51
f 2/4/52 4/3/52 103/105/52 104/104/52
f 70/70/52 72/72/52 172/173/52 170/171/52
f 36/36/52 38/38/52 138/139/52 136/137/52
f 73/73/51 71/71/51 171/174/51 173/176/51
f 39/39/51 37/37/51 137/140/51 139/142/51
f 5/5/51 3/2/51 102/106/51 105/108/51
f 72/72/52 74/74/52 174/175/52 172/173/52
f 38/38/52 40/40/52 140/141/52 138/139/52
f 4/3/52 6/6/52 106/107/52 103/105/52
f 75/75/51 73/73/51 173/176/51 175/178/51
f 41/41/51 39/39/51 139/142/51 141/144/51
f 7/7/51 5/5/51 105/108/51 107/110/51
f 74/74/52 76/76/52 176/177/52 174/175/52
f 40/40/52 42/42/52 142/143/52 140/141/52
f 6/6/52 8/8/52 108/109/52 106/107/52
f 77/77/51 75/75/51 175/178/51 177/180/51
