# Blender v2.83.6 OBJ File: 'tracer_container.blend'
# www.blender.org
mtllib tracer_container.mtl
o Cube_Cube.001
v -0.037500 -0.375000 0.037500
v -0.037500 0.375000 0.037500
v -0.037500 -0.375000 -0.037500
v -0.037500 0.375000 -0.037500
v 0.037500 -0.375000 0.037500
v 0.037500 0.375000 0.037500
v 0.037500 -0.375000 -0.037500
v 0.037500 0.375000 -0.037500
vt 0.375000 0.000000
vt 0.375000 0.250000
vt 0.625000 0.250000
vt 0.625000 0.000000
vt 0.375000 0.500000
vt 0.625000 0.500000
vt 0.375000 0.750000
vt 0.625000 0.750000
vt 0.375000 1.000000
vt 0.625000 1.000000
vn 1.0000 0.0000 0.0000
vn 0.0000 0.0000 1.0000
vn -1.0000 0.0000 0.0000
vn 0.0000 0.0000 -1.0000
usemtl None
s off
f 1/1/1 3/2/1 4/3/1 2/4/1
f 3/2/2 7/5/2 8/6/2 4/3/2
f 7/5/3 5/7/3 6/8/3 8/6/3
f 5/7/4 1/9/4 2/10/4 6/8/4
